<svg xmlns="http://www.w3.org/2000/svg" version="1.1" xmlns:xlink="http://www.w3.org/1999/xlink" xmlns:svgjs="http://svgjs.dev/svgjs" width="2000" height="1500" viewBox="0 0 2000 1500"><rect width="2000" height="1500" fill="#000000"></rect><g transform="matrix(0.4444444444444444,0,0,0.4444444444444444,555.5555555555557,250)"><svg viewBox="0 0 320 360" data-background-color="#ffffff" preserveAspectRatio="xMidYMid meet" height="2250" width="2000" xmlns="http://www.w3.org/2000/svg" xmlns:xlink="http://www.w3.org/1999/xlink"><g id="tight-bounds" transform="matrix(1,0,0,1,0,0)"><svg viewBox="0 0 320 360" height="360" width="320"><g><svg></svg></g><g><svg viewBox="0 0 320 360" height="360" width="320"><g><path d="M165.217 303.356c-1.404-1.755-2.809-0.702-2.808-1.755-8.426 2.106-24.223-3.511-30.894-2.809 1.404-2.106-2.106-1.755-2.106-3.159-1.404 2.106-2.809 0-4.915 0.702-2.106-5.266-10.532-1.404-11.585-8.075-4.915 0-6.67-2.809-11.586-5.617 0.351-0.351 0.702-0.351 1.054-0.702-2.457-0.351-2.457-1.755-4.564-1.755l0.702-1.405c-3.862-0.702-5.266-6.67-10.883-8.776-1.755-0.351-5.617-6.319-7.723-7.724-1.053-0.702-2.809-0.702-0.352-1.053-0.351-0.351-0.351-1.053 0-1.404-2.457-0.702-2.809-2.809-5.968-3.862-0.351-1.053 0.702-1.755 0-2.457-0.702-0.351-1.755 0.351-2.457 0-0.351 6.319 6.67 7.021 8.777 12.287-0.702-0.702-1.755-2.809-2.458-1.404-0.351 1.053 2.809 4.915 2.809 2.808-1.053 0.702-1.404-1.053-0.703-1.404 1.053 1.755 3.16 1.404 3.16 2.809-1.053 1.053-2.457-1.053-2.106 0.702 3.16 1.755 2.809 3.511 4.563 5.968-1.404-1.755-1.755 1.404-3.159 0-0.351-5.266-6.319-4.213-6.319-9.479-0.702-1.755-1.404-0.351-2.458-1.053 1.404-1.404-4.213-6.319-4.213-4.564-1.755-2.106-0.702-2.809-1.053-4.213-1.404-0.351-0.351 1.404-1.404 0.351 1.404-2.457-1.755-5.617-3.862-8.074l1.405-0.702c-2.457-1.404-2.809-4.213-4.564-7.373-2.106 3.16 4.213 10.181 3.159 11.585 0 0.351 2.457 3.16 3.16 4.564 2.809 4.915 4.915 10.883 8.777 13.692-0.702-0.351-0.351-2.457 0.702-1.404 0 1.053-0.702 2.106-0.702 3.159 2.106 2.106 3.862 3.862 5.968 5.968-4.564-2.809-9.128-5.617-12.288-9.83 1.755-0.351 3.511 2.809 4.915 2.458-3.511-2.809-2.457-3.862-3.861-7.372-1.404-1.053 0.351 1.404-1.054 1.755-4.564-4.213-8.075-6.67-10.181-10.532 0.351-0.351 0.702-0.702 0.703-1.404-0.351-0.351-0.351-0.351-0.703-0.702 2.106 2.106 2.809 3.862 5.266 4.212-1.053-1.053 0-1.404-1.404-2.457-0.702-1.404-1.755 0.702-2.457-0.351 0.702-1.053 0-2.457 0-3.511-0.702 0-1.404 0-1.756-1.053-0.702-0.351-1.053 0-1.404 0.702-0.351-0.351-0.351-1.053-0.702-1.404v-0.351c-0.351-0.351-0.702-1.053-1.053-1.405-2.809-7.372-4.564-17.202-8.426-23.521 1.053-4.213-0.702-12.638-1.755-14.745 1.053-1.755 0.351-9.83-0.351-11.234-1.755 0.702 0.351 4.564-1.404 5.617-1.755-7.723 1.053-16.5 0.351-23.521 0.702 0 1.404 0 1.404-0.351-1.053-1.053 0.702-3.16 0.351-5.617 1.404-3.16-3.16 4.564-3.16 7.723-0.351 0.702-1.755 0-1.404 1.756 0 2.457 0.702 7.372-0.702 10.883-0.702 0-0.702-0.702-1.404-0.351-0.351 1.755-0.702 3.862-1.053 5.617-0.351-0.702-0.702-1.755-0.703-2.107-1.755-8.777 0-18.958-0.702-26.33 1.404 0 1.404-2.106 2.458-2.808-0.351 2.809-1.053 6.319 0.702 7.021 1.404-13.692 4.213-28.787 10.532-43.532 4.564-10.883 11.234-21.766 19.308-30.543 0.702 1.053-0.351 3.511 0 4.564 7.021-7.372 11.585-16.149 19.309-21.064 0.351 1.755-3.16 3.16-3.16 4.564 3.16-3.16 4.213-2.106 7.724-3.159 1.053-1.404-1.404 0-1.756-1.405 2.106-1.404 3.511-3.16 4.915-4.212 0 0.351-0.351 0.351-0.351 0.702 3.862-1.053 4.213-3.16 7.022-3.862-0.351-0.351-1.053-0.702-2.107-0.351 0.702-0.351 1.755-1.053 2.809-1.404-0.351 0-0.351 0.351-0.702 0.351 2.106-1.053 0.351 0.351 0.351 1.053 0.351 0 0.702-0.351 0.702-0.351-2.106 1.404-3.511 2.106-4.213 4.564 1.053-0.702 1.404 0 2.809-1.054 1.404-0.702-0.351-1.755 0.702-2.457 1.053 0.702 2.457 0.351 3.51 0.351 0-0.702 0.351-1.404 1.054-1.755 0.351-0.702 0-1.053-0.352-1.053 0.351-0.351 0.702-0.351 1.405-0.703 0 0 0.351 0 0.351 0.351 5.968-2.809 12.638-5.266 18.957-7.372 3.862-0.351 8.777-0.351 10.883-2.808-0.702 0-1.404 0.351-1.755 0 0.351 0 1.053-0.351 1.404-0.351 0.702 0.702 1.755 0 0.702 1.404 0.351 0 0.351 0 0.703-0.351 0 0.351 0 0.351 0.351 0.702 0.351 0 0.702-0.351 1.053-1.053 0.351 0 0.702 0 1.053-0.351l-0.351 0.351c2.809-0.702 5.266-0.351 9.128-1.054 0-0.351 0-0.702 0-1.053 0.702 0 1.053-0.351 1.755-0.351v0.351c1.404-0.702 2.809 0.702 2.808 0 0.351 0 0.351 0 0.703 0 0 0.702-0.351 1.053-0.351 1.405 1.755 0 2.809 0 3.51-1.054-0.351-0.351-0.702-0.351-1.053-0.351 0.702 0 1.404-0.351 2.106-0.702 1.053 0.351 1.404 0.702 1.405 2.107 1.755-3.16 7.372 0.702 9.829 0 1.053 0 0.702-1.404 1.405-2.107 0.351 0 0.702 0 1.053 0 1.755 1.404 4.213 2.809 7.372 3.16-2.809-0.702 0.351-1.053 0.702-1.405-0.702 0-0.702-0.351-0.702-0.702 1.053 0 2.106 0.351 3.16 0.351 0 0.702 0.351 1.053 1.053 1.054 0.702 0 0.702-0.351 0.702-1.054 1.053 0 1.755 0 2.809 0.351-0.351 1.404 1.755 1.755 2.457 2.809-2.809-0.702-5.968-1.755-7.021 0 11.234 2.457 23.521 5.968 35.457 11.936 0 0 0 0 0 0.351h0.352c2.106 1.053 4.213 2.106 6.319 3.16 1.404 0.702 2.457 1.404 3.861 2.457 0 0.351 0 0.702 0.703 0.702h0.351c1.404 1.053 2.809 1.755 4.212 2.809 1.404 2.106 2.809 4.915 5.266 4.213 5.266 8.075 10.883 11.234 15.447 19.659 0.351-1.404 1.404 3.16 3.16 3.511-2.809-0.351 1.755 1.755-1.053 1.404 2.457 2.457 3.16 3.511 3.51 6.319-0.702-1.404-1.053-1.755-1.404-0.351-0.351 2.106 2.457-0.351 3.511 1.756-2.106 0-1.404 1.404-1.054 3.159 1.053-1.053 0.702-2.106 1.756-1.755 1.404 1.404-0.702 1.755-0.351 2.809 1.053-1.404 1.404-0.702 2.808 0-1.755 0.351 1.053 2.809-1.053 1.755 1.404 1.755 1.755 2.809 1.053 4.564-1.404-2.106-0.351-3.511-2.457-3.16 4.213 3.511 2.106 11.585 7.021 12.287-3.16 0.702 0 2.106-1.755 2.458 2.106 0.702 1.053 3.511 3.51 4.213-0.351 1.755-1.053 2.809-1.404 4.563 1.053 1.404 1.404 4.213 3.16 4.564-1.053 1.053-0.351 3.862-1.404 4.915 1.404-0.702 2.106-0.702 3.159 0.702-1.755 1.404-0.351 2.809-1.404 3.16 3.16 8.075-0.702 24.575 1.053 30.894-2.106-1.053-1.404 2.457-2.808 2.457 2.457 1.053 0.351 2.809 1.404 4.564-4.915 2.809 0 10.532-6.67 12.287 0.702 4.915-2.106 7.021-4.213 12.288-0.351-0.351-0.351-0.702-0.702-1.054-0.351 2.457-1.755 2.809-1.054 4.915l-1.404-0.702c0 3.862-5.968 5.968-7.372 11.936-0.351 1.755-5.617 6.319-7.022 8.777-0.702 1.053-0.351 2.809-1.053 0.351-0.351 0.351-1.053 0.351-1.404 0.351-0.351 2.457-2.457 3.16-3.16 6.319-0.702 0.351-1.755-0.702-2.457 0.351 0 0.702 0.702 1.755 0.351 2.458 6.319-0.351 6.319-7.723 11.234-10.181-0.351 1.053-2.457 2.106-1.053 2.808 1.053 0 4.213-3.511 2.457-3.159 1.053 0.702-1.053 1.404-1.404 1.053 1.755-1.404 1.053-3.16 2.458-3.511 1.053 0.702-1.053 2.457 1.053 2.107 1.404-3.16 3.16-3.511 5.266-5.266-1.404 1.404 1.755 1.755 0.351 3.159-5.266 1.053-3.511 7.021-8.777 7.724-1.404 1.053-0.351 1.404-0.702 2.457-1.755-1.053-5.617 4.915-4.213 4.564-1.755 1.755-2.809 1.053-4.212 1.404-0.351 1.404 1.404 0.351 0.702 1.405-2.457-1.053-5.617 2.457-7.724 4.915l-1.053-1.054c-1.053 2.809-3.862 3.16-7.021 5.266 3.511 1.755 9.479-5.617 11.234-4.564 0.351 0 3.16-2.809 4.213-3.861 4.564-3.511 10.181-6.319 12.287-10.181-0.351 0.702-2.457 0.702-1.404-0.351 1.053-0.351 2.106 0.351 3.159 0.351 5.617-7.723 12.638-14.043 17.905-23.17 0.351-0.351 0.702-1.053 1.053-1.756-0.702 2.106-1.755 3.862-2.458 5.968-5.617 3.862-7.723 15.096-14.393 16.851 0.351 3.862-3.16 4.915-4.915 9.479-1.053 1.404-1.755-1.053-2.809 0.702 1.053 4.915-8.777 4.564-8.425 9.128-0.702 0.351-1.755 0.702-2.458 1.404h-0.351c-0.351 0.351-0.351 0.351-0.702 0.702-1.755 1.053-3.16 2.106-4.564 3.16-4.915 2.809-11.585 4.915-16.851 7.723v-0.351c-1.404 0.702-3.16 0.351-2.809 1.756-1.053 0.702-2.106 1.404-3.159 2.106-0.351 0-0.351 0-0.702 0 0 0-0.351-0.351-0.702-0.351-0.702 0-0.702 0-1.054 0.351-4.564 0.351-10.532 2.457-12.287 3.862-1.755-1.053-9.83 0.702-11.234 1.404 0.702 1.053 2.809 0 4.564 0-1.053 0.351-2.106 0.702-2.458 1.404-0.351 0-0.351 0-0.702 0-0.351-1.053-1.404 0-1.755-0.351h0.351c-0.351-1.404-1.404-2.106-3.16-1.755 0 0.702 0 1.053-0.351 1.755 0.702 0 2.809-1.053 2.809 0-0.351 0-0.351 0.351 0 0.351-0.702 0.702-1.755 0.702-2.458 1.054-1.404 0-3.16 0-4.563 0-0.351-0.351-0.702-0.351-1.405-0.703-0.351 0.351-1.053 0.351-1.404 0.703-2.106 0-4.564 0.351-6.319 0.702 0-0.702 0-1.404-0.702-1.405-1.053 1.404-3.16-0.351-5.617 0.352-2.457-0.702 1.404 1.053 4.915 1.755-0.351 0.351-0.702 0.702-1.756 1.053M116.068 308.271c-4.915-4.564-15.096-6.67-16.851-10.181-2.809-0.351-7.021-5.617-10.532-6.319 1.755 0 0.351-1.053 0-1.755-0.702 0.702-1.404 1.053-2.106 1.053 0-2.809-2.809-4.564-5.266-6.319 1.755 1.053 3.16 1.755 5.266 2.106 0-0.702 0-1.404 0.702-1.404 2.457 2.457 5.266 4.915 8.425 7.372 4.213 3.862 25.979 13.692 29.841 15.447 0 0-0.702 1.404-0.351 1.404 1.755 1.053 3.16-1.053 3.511 1.404-5.617 0.702-7.723-3.16-12.639-2.808M277.909 226.824v0.351 0c-0.351 0 0-0.351 0-0.351M136.079 64.281c-0.351 0.351-0.702 0.351-0.702 0.351 0-0.351 0.351-0.351 0.702-0.351M129.409 66.036c0 0.351 0 0.351 0 0 0 0.351 0 0.351 0 0 0 0.351 0 0 0 0M106.238 73.408v0c0.351-0.351 0.351-0.351 0.703-0.351-0.351 0-0.702 0.351-0.703 0.351M162.409 61.823c-0.702 0-1.053 0-1.404-0.351 0.351 0 0.702 0 1.053 0h0.351c0 0 0 0 0 0.351M168.728 62.525c-0.351-0.351-1.404-0.702-2.457-0.702 0-0.351 0.351-0.702 0.351-0.702 0.351 0 0.702 0 1.053 0 0 0 0.351 0 0.351 0.351 0 0 0 0 0-0.351 0.351 0 0.351 0 0.702 0 0.351 0.702 0.702 1.053 0 1.404M180.313 63.579c-1.755 0.351-2.809-0.351-4.564-1.405 1.053 0 2.457 0.351 3.511 0.702 0.351 0 0.702 0.351 1.053 0.703M305.292 113.43c-0.702 0.351-1.053 0.351-1.755-1.053-5.617-11.936-15.798-29.138-30.543-43.532-14.394-14.745-33.702-26.681-51.255-33.001 1.053 0.351 2.457 1.053 1.755 1.756-15.447-5.968-30.192-9.479-44.234-10.883-37.915-5.968-77.585 2.106-108.128 21.766 0.351 0.702 0.351 1.053-0.702 1.755-11.234 7.021-27.032 19.309-39.671 35.458-12.638 16.149-22.468 36.511-26.681 54.766 0.351-1.053 0.702-2.809 1.405-2.107-9.128 36.16-6.67 67.053 5.968 93.735 0.702-0.702-1.755-4.213 0.351-3.862 1.404 3.862 3.16 8.075 5.266 11.936 2.457 5.617 5.266 12.989 9.128 14.745-9.83-19.309-16.5-41.426-17.203-61.085 1.404 2.809 1.053 8.777 3.16 11.234 0.702-13.34-2.457-31.245 2.106-43.883-1.053 6.67-1.755 15.798-1.053 24.925 0 6.67 3.16 25.277 5.266 27.032-0.351-0.351-0.351-2.106 0-2.106 1.053 2.106-1.404 3.16 0.351 3.511 0-0.702 0.351-0.702 0.702-0.703 3.511 7.723 8.075 19.66 11.585 25.628 4.213 7.723 9.83 14.745 16.149 21.064 0 0.351 0.351 0.351 0.352 0.702 0.702 1.755 3.16 3.862 3.861 5.266 0.351 0.702-0.351 1.755 0 2.458 5.266 9.83 12.989 19.66 22.468 27.383 5.968 7.021 15.447 14.394 27.032 20.713 11.234 5.968 24.223 10.883 36.16 13.691 8.426 2.106 18.606 2.457 24.926 3.862 8.426 1.755 23.17-0.702 30.542-2.107 44.234-6.67 88.117-36.862 110.235-80.393 22.819-43.883 22.117-97.596 2.457-138.671" fill="#ffffff" fill-rule="nonzero" stroke="none" stroke-width="1" stroke-linecap="butt" stroke-linejoin="miter" stroke-miterlimit="10" stroke-dasharray="" stroke-dashoffset="0" font-family="none" font-weight="none" font-size="none" text-anchor="none" style="mix-blend-mode: normal" data-fill-palette-color="tertiary"></path></g><g transform="matrix(1,0,0,1,80,159.77497916463756)"><svg viewBox="0 0 160 40.45004167072486" height="40.45004167072486" width="160"><g><svg viewBox="0 0 160 40.45004167072486" height="40.45004167072486" width="160"><g><svg viewBox="0 0 160 40.45004167072486" height="40.45004167072486" width="160"><g><svg viewBox="0 0 160 40.45004167072486" height="40.45004167072486" width="160"><g id="textblocktransform"><svg viewBox="0 0 160 40.45004167072486" height="40.45004167072486" width="160" id="textblock"><g><svg viewBox="0 0 160 21.81681962914404" height="21.81681962914404" width="160"><g transform="matrix(1,0,0,1,0,0)"><svg width="160" viewBox="6.5 -35.7 266.93 36.400000000000006" height="21.81681962914404" data-palette-color="#000000"><path d="M21.9 0L6.5 0 6.5-35 21.75-35 21.75-32.55 13-33.7Q10.7-34 9.9-34L9.9-34 9.9-18.75Q10.55-18.75 13-18.9L13-18.9 21.2-19.4 21.2-17.1 13-17.6Q10.55-17.75 9.9-17.75L9.9-17.75 9.9-1Q10.8-1 13.05-1.3L13.05-1.3 21.9-2.45 21.9 0ZM30.85 0L27.2 0 40.65-35 43.75-35 57.2 0 53.55 0 47.35-16.4 36-16.4 30.85 0ZM41.3-32.4L41-32.4 36.35-17.6 46.9-17.6 41.3-32.4ZM91.5-16.6L82.25-16.6 82.25-17.8 94.9-17.8 94.9-4.2Q92.59-1.9 89.27-0.6 85.95 0.7 81.84 0.7L81.84 0.7Q77.65 0.7 74.09-0.68 70.55-2.05 67.9-4.53 65.25-7 63.77-10.3 62.3-13.6 62.3-17.5L62.3-17.5Q62.3-21.4 63.77-24.7 65.25-28 67.9-30.48 70.55-32.95 74.09-34.33 77.65-35.7 81.84-35.7L81.84-35.7Q83.65-35.7 85.77-35.45 87.9-35.2 89.84-34.77 91.8-34.35 93.15-33.75L93.15-33.75 92.9-30.95 92.59-30.95Q90.59-32.7 87.8-33.6 85-34.5 81.84-34.5L81.84-34.5Q77.15-34.5 73.59-32.38 70.05-30.25 68.07-26.43 66.09-22.6 66.09-17.5L66.09-17.5Q66.09-12.4 68.07-8.58 70.05-4.75 73.59-2.63 77.15-0.5 81.84-0.5L81.84-0.5Q84.75-0.5 87.22-1.3 89.7-2.1 91.5-3.6L91.5-3.6 91.5-16.6ZM106.39 0L106.39-35 109.79-35 109.79-1Q110.74-1 112.79-1.3L112.79-1.3 121.09-2.55 121.09 0 106.39 0ZM144.84 0L129.44 0 129.44-35 144.69-35 144.69-32.55 135.94-33.7Q133.64-34 132.84-34L132.84-34 132.84-18.75Q133.49-18.75 135.94-18.9L135.94-18.9 144.14-19.4 144.14-17.1 135.94-17.6Q133.49-17.75 132.84-17.75L132.84-17.75 132.84-1Q133.74-1 135.99-1.3L135.99-1.3 144.84-2.45 144.84 0ZM168.84 0L168.84-35 172.24-35 172.24-1Q173.19-1 175.24-1.3L175.24-1.3 183.54-2.55 183.54 0 168.84 0ZM191.33 0L187.68 0 201.13-35 204.23-35 217.68 0 214.03 0 207.83-16.4 196.48-16.4 191.33 0ZM201.78-32.4L201.48-32.4 196.83-17.6 207.38-17.6 201.78-32.4ZM233.88 0L225.78 0 225.78-35 232.73-35Q238.13-35 241.13-32.75 244.13-30.5 244.13-26.5L244.13-26.5Q244.13-23.55 242.38-21.48 240.63-19.4 237.48-18.65L237.48-18.65 237.48-18.35Q241.78-17.8 244.21-15.38 246.63-12.95 246.63-9.25L246.63-9.25Q246.63-4.9 243.28-2.45 239.93 0 233.88 0L233.88 0ZM232.78-33.8L232.78-33.8 229.18-33.8 229.18-18.8 232.73-18.8Q240.63-18.8 240.63-26.3L240.63-26.3Q240.63-33.8 232.78-33.8ZM233.88-17.6L233.88-17.6 229.18-17.6 229.18-1.2 233.88-1.2Q243.03-1.2 243.03-9.4L243.03-9.4Q243.03-17.6 233.88-17.6ZM253.08-1.1L253.08-1.1 253.38-4.1 253.68-4.1Q255.63-2.4 258.08-1.45 260.53-0.5 262.93-0.5L262.93-0.5Q266.33-0.5 268.43-2.38 270.53-4.25 270.53-7.4L270.53-7.4Q270.53-9.15 269.75-10.65 268.98-12.15 267.2-13.7 265.43-15.25 262.33-17.05L262.33-17.05Q260.18-18.3 258.23-19.68 256.28-21.05 255.03-22.88 253.78-24.7 253.78-27.25L253.78-27.25Q253.78-31.05 256.53-33.38 259.28-35.7 263.78-35.7L263.78-35.7Q265.78-35.7 268.08-35.27 270.38-34.85 271.63-34.2L271.63-34.2 271.38-31.4 271.08-31.4Q268.23-34.5 263.78-34.5L263.78-34.5Q260.58-34.5 258.63-32.88 256.68-31.25 256.68-28.5L256.68-28.5Q256.68-26.45 257.75-24.98 258.83-23.5 260.53-22.33 262.23-21.15 264.18-20.05L264.18-20.05Q266.43-18.75 268.55-17.3 270.68-15.85 272.05-13.83 273.43-11.8 273.43-8.75L273.43-8.75Q273.43-5.95 272.13-3.83 270.83-1.7 268.45-0.5 266.08 0.7 262.93 0.7L262.93 0.7Q260.93 0.7 258.23 0.2 255.53-0.3 253.08-1.1Z" opacity="1" transform="matrix(1,0,0,1,0,0)" fill="#ffffff" class="wordmark-text-0" data-fill-palette-color="primary" id="text-0"></path></svg></g></svg></g><g transform="matrix(1,0,0,1,0,26.967247139913848)"><svg viewBox="0 0 160 13.482794530811015" height="13.482794530811015" width="160"><g transform="matrix(1,0,0,1,0,0)"><svg width="160" viewBox="0.24 -36.84 573.0699999999999 48.290000000000006" height="13.482794530811015" data-palette-color="#131313"><path d="M33.45-2.15L33.45 0 21.56 0 21.56-2.15 24.44-2.39Q24.63-2.39 24.8-2.65 24.98-2.91 24.98-3.13L24.98-3.13Q24.98-3.22 24.95-3.25L24.95-3.25 21.51-12.4 9.96-12.4 6.64-3.39Q6.62-3.34 6.62-3.25L6.62-3.25Q6.62-2.95 6.87-2.67 7.13-2.39 7.35-2.39L7.35-2.39 10.3-2.15 10.3 0 0.24 0 0.24-2.15 3.15-2.76 14.79-34.35 18.55-34.35 30.15-3.49Q30.35-2.98 30.49-2.81 30.64-2.64 31.2-2.54L31.2-2.54 33.45-2.15ZM10.84-14.79L20.61-14.79 15.7-27.91 10.84-14.79ZM54.09-23.95L54.09-18.99 52.14-18.99Q51.68-19.56 51.03-19.96 50.38-20.36 49.45-20.36L49.45-20.36Q48.26-20.36 47-19.53 45.74-18.7 44.45-17.26L44.45-17.26 44.45-3.2Q44.45-2.15 45.5-2.1L45.5-2.1 48.79-1.95 48.79 0 36.29 0 36.29-1.9 38.76-2.1Q39.2-2.15 39.51-2.44 39.81-2.73 39.81-3.2L39.81-3.2 39.81-20.56 36.2-20.56 36.2-22.19 42.4-24.1 44.45-24.1 44.45-19.65Q45.18-20.46 46.28-21.66 47.38-22.85 48.62-23.78 49.87-24.71 51.04-24.71L51.04-24.71Q51.82-24.71 52.73-24.46 53.63-24.22 54.09-23.95L54.09-23.95ZM77.57-4.71L77.57-4.71 77.57-1.86Q75.89-0.95 73.77-0.17 71.66 0.61 69.12 0.61L69.12 0.61Q65.63 0.61 63.06-1.03 60.48-2.66 59.08-5.48 57.67-8.3 57.67-11.89L57.67-11.89Q57.67-16.09 59.34-18.95 61.02-21.8 63.76-23.25 66.51-24.71 69.71-24.71L69.71-24.71Q73-24.71 75.24-23.43 77.47-22.14 77.47-19.7L77.47-19.7Q77.47-18.24 76.56-17.49 75.64-16.75 74.52-16.75L74.52-16.75Q73.69-16.75 73.08-17.03 72.47-17.31 72-17.6L72-17.6 72-21.95Q70.86-22.61 69.9-22.61L69.9-22.61Q67.68-22.61 66.08-21.3 64.48-20 63.63-17.72 62.77-15.45 62.77-12.55L62.77-12.55Q62.77-9.79 63.7-7.51 64.63-5.22 66.47-3.88 68.32-2.54 71.05-2.54L71.05-2.54Q72.78-2.54 74.37-3.1 75.96-3.66 77.57-4.71ZM108.15-1.95L108.15 0 97.02 0 97.02-1.95 99.07-2.1Q99.51-2.15 99.84-2.44 100.17-2.73 100.17-3.2L100.17-3.2 100.17-16.09Q100.17-18.24 99.14-19.64 98.12-21.04 95.21-21.04L95.21-21.04Q93.89-21.04 92.37-20.63 90.84-20.21 89.77-19.6L89.77-19.6 89.77-3.2Q89.77-2.17 90.77-2.1L90.77-2.1 92.92-1.95 92.92 0 81.66 0 81.66-1.95 84.05-2.1Q85.1-2.17 85.1-3.2L85.1-3.2 85.1-33.25 81.37-33.25 81.37-34.91 87.77-36.84 89.77-36.84 89.77-21.61Q90.67-22.17 92.11-22.89 93.55-23.61 95.14-24.16 96.73-24.71 98.02-24.71L98.02-24.71Q100.9-24.71 102.85-22.85 104.81-21 104.81-17.14L104.81-17.14 104.81-3.2Q104.81-2.73 105.14-2.44 105.47-2.15 105.91-2.1L105.91-2.1 108.15-1.95ZM121.57-32.35L121.57-32.35Q121.57-31.08 120.69-30.16 119.81-29.25 118.54-29.25L118.54-29.25Q117.27-29.25 116.36-30.16 115.44-31.08 115.44-32.35L115.44-32.35Q115.44-33.64 116.36-34.52 117.27-35.4 118.54-35.4L118.54-35.4Q119.81-35.4 120.69-34.52 121.57-33.64 121.57-32.35ZM124.13-1.95L124.13 0 112.39 0 112.39-1.95 114.83-2.1Q115.88-2.17 115.88-3.2L115.88-3.2 115.88-21.04 112.44-21.04 112.44-22.8 118.54-24.71 120.52-24.71 120.52-3.2Q120.52-2.73 120.83-2.44 121.13-2.15 121.57-2.1L121.57-2.1 124.13-1.95ZM143.85-3.05L143.85-3.05 143.85-1.05Q143.85-1.05 142.91-0.63 141.97-0.22 140.45 0.2 138.92 0.61 137.11 0.61L137.11 0.61Q134.31 0.61 133.02-0.72 131.74-2.05 131.74-5L131.74-5 131.74-21.61 128.54-21.61 128.54-23.24 131.96-24.85 134.21-30.15 136.41-30.15 136.41-24.1 143.46-24.1 143.46-21.61 136.41-21.61 136.41-7.64Q136.41-4.66 137.41-3.43 138.41-2.2 140.41-2.2L140.41-2.2Q141.87-2.2 142.86-2.62 143.85-3.05 143.85-3.05ZM168.35-5.54L168.35-2.49Q166.25-1.2 163.83-0.29 161.4 0.61 158.86 0.61L158.86 0.61Q155.83 0.61 153.18-0.74 150.53-2.1 148.9-4.86 147.26-7.62 147.26-11.79L147.26-11.79Q147.26-15.7 148.77-18.6 150.29-21.51 152.95-23.11 155.61-24.71 159-24.71L159-24.71Q163.67-24.71 166.01-21.81 168.35-18.92 168.35-14.45L168.35-14.45Q168.35-14.21 168.35-13.81 168.35-13.4 168.31-13.06L168.31-13.06 152.09-13.06Q152.09-11.16 152.5-9.27 152.9-7.37 153.85-5.83 154.8-4.3 156.42-3.37 158.03-2.44 160.44-2.44L160.44-2.44Q162.59-2.44 164.63-3.43 166.67-4.42 168.35-5.54L168.35-5.54ZM152.36-15.31L163.35-15.31 163.35-16.41Q163.35-18.87 162.17-20.56 160.98-22.24 158.49-22.24L158.49-22.24Q156.03-22.24 154.29-20.39 152.56-18.53 152.36-15.31L152.36-15.31ZM193.03-4.71L193.03-4.71 193.03-1.86Q191.34-0.95 189.23-0.17 187.12 0.61 184.58 0.61L184.58 0.61Q181.09 0.61 178.51-1.03 175.94-2.66 174.53-5.48 173.13-8.3 173.13-11.89L173.13-11.89Q173.13-16.09 174.8-18.95 176.47-21.8 179.22-23.25 181.97-24.71 185.17-24.71L185.17-24.71Q188.46-24.71 190.7-23.43 192.93-22.14 192.93-19.7L192.93-19.7Q192.93-18.24 192.01-17.49 191.1-16.75 189.98-16.75L189.98-16.75Q189.15-16.75 188.54-17.03 187.93-17.31 187.46-17.6L187.46-17.6 187.46-21.95Q186.31-22.61 185.36-22.61L185.36-22.61Q183.14-22.61 181.54-21.3 179.94-20 179.09-17.72 178.23-15.45 178.23-12.55L178.23-12.55Q178.23-9.79 179.16-7.51 180.09-5.22 181.93-3.88 183.77-2.54 186.51-2.54L186.51-2.54Q188.24-2.54 189.83-3.1 191.42-3.66 193.03-4.71ZM212.72-3.05L212.72-3.05 212.72-1.05Q212.72-1.05 211.78-0.63 210.84-0.22 209.32 0.2 207.79 0.61 205.98 0.61L205.98 0.61Q203.17 0.61 201.89-0.72 200.61-2.05 200.61-5L200.61-5 200.61-21.61 197.41-21.61 197.41-23.24 200.83-24.85 203.08-30.15 205.27-30.15 205.27-24.1 212.33-24.1 212.33-21.61 205.27-21.61 205.27-7.64Q205.27-4.66 206.28-3.43 207.28-2.2 209.28-2.2L209.28-2.2Q210.74-2.2 211.73-2.62 212.72-3.05 212.72-3.05ZM225.31-32.35L225.31-32.35Q225.31-31.08 224.43-30.16 223.55-29.25 222.28-29.25L222.28-29.25Q221.01-29.25 220.1-30.16 219.18-31.08 219.18-32.35L219.18-32.35Q219.18-33.64 220.1-34.52 221.01-35.4 222.28-35.4L222.28-35.4Q223.55-35.4 224.43-34.52 225.31-33.64 225.31-32.35ZM227.87-1.95L227.87 0 216.13 0 216.13-1.95 218.57-2.1Q219.62-2.17 219.62-3.2L219.62-3.2 219.62-21.04 216.18-21.04 216.18-22.8 222.28-24.71 224.26-24.71 224.26-3.2Q224.26-2.73 224.56-2.44 224.87-2.15 225.31-2.1L225.31-2.1 227.87-1.95ZM258.28-1.95L258.28 0 247.25 0 247.25-1.95 249.35-2.1Q249.79-2.15 250.09-2.44 250.4-2.73 250.4-3.2L250.4-3.2 250.4-16.21Q250.4-18.58 249.3-19.81 248.2-21.04 245.59-21.04L245.59-21.04Q244.17-21.04 242.77-20.64 241.36-20.24 240.1-19.6L240.1-19.6 240.1-3.2Q240.1-2.17 241.15-2.1L241.15-2.1 243.24-1.95 243.24 0 231.94 0 231.94-1.95 234.38-2.1Q235.43-2.17 235.43-3.2L235.43-3.2 235.43-20.56 231.94-20.56 231.94-22.19 238.04-24.1 240.1-24.1 240.1-21.61Q242.2-22.8 244.4-23.75 246.61-24.71 248.35-24.71L248.35-24.71Q251.62-24.71 253.33-22.67 255.04-20.63 255.04-16.99L255.04-16.99 255.04-3.2Q255.04-2.73 255.34-2.44 255.65-2.15 256.09-2.1L256.09-2.1 258.28-1.95ZM286.03-23.19L286.03-20.75 281.05-20.75Q281.61-19.85 282.01-18.77 282.4-17.7 282.4-16.26L282.4-16.26Q282.4-13.77 281.03-12 279.66-10.23 277.43-9.28 275.19-8.33 272.58-8.33L272.58-8.33Q272.34-8.33 272.09-8.33 271.85-8.33 271.6-8.35L271.6-8.35Q271.29-7.84 271.18-7.25 271.07-6.67 271.07-6.15L271.07-6.15Q271.07-5.69 271.12-5.37 271.17-5.05 271.19-5L271.19-5 271.9-4.93Q273.66-4.76 275.84-4.44 278.03-4.13 280.06-3.42 282.1-2.71 283.42-1.42 284.74-0.12 284.74 2L284.74 2Q284.74 4.37 283.01 6.53 281.27 8.69 278.33 10.07 275.39 11.45 271.75 11.45L271.75 11.45Q267.28 11.45 264.82 9.41 262.35 7.37 262.35 4.35L262.35 4.35Q262.35 2.17 263.65 0.48 264.94-1.22 267.65-1.71L267.65-1.71Q267.38-2.49 267.26-2.83 267.14-3.17 267.14-4L267.14-4Q267.14-4.98 267.74-6.16 268.33-7.35 269.65-8.69L269.65-8.69Q267.16-9.25 265.31-11.22 263.45-13.18 263.45-16.21L263.45-16.21Q263.45-20.14 266.22-22.42 268.99-24.71 273.48-24.71L273.48-24.71Q275.27-24.71 276.79-24.18 278.32-23.66 279.3-23.19L279.3-23.19 286.03-23.19ZM277.64-16.55L277.64-16.55Q277.64-18.14 277.1-19.53 276.56-20.92 275.54-21.79 274.51-22.66 273-22.66L273-22.66Q270.9-22.66 269.57-21.03 268.24-19.41 268.24-16.5L268.24-16.5Q268.24-13.99 269.43-12.19 270.63-10.4 273-10.4L273-10.4Q275.24-10.4 276.44-12.21 277.64-14.01 277.64-16.55ZM280.44 3.34L280.44 3.34Q280.44 1.78 279.36 0.93 278.27 0.07 276.66-0.34 275.05-0.76 273.41-0.94 271.78-1.12 270.65-1.34L270.65-1.34Q268.48-0.56 267.66 0.78 266.84 2.12 266.84 3.34L266.84 3.34Q266.84 4.54 267.54 5.9 268.24 7.25 269.69 8.2 271.14 9.16 273.39 9.16L273.39 9.16Q275.78 9.16 277.34 8.2 278.9 7.25 279.67 5.9 280.44 4.54 280.44 3.34ZM341.26-33.54L341.26-25.56 338.31-25.56 337.6-30.25Q337.43-31.1 336.77-31.1L336.77-31.1 329.62-31.1 329.62-3.44Q329.62-3.08 329.88-2.73 330.13-2.39 330.67-2.34L330.67-2.34 333.87-2.15 333.87 0 320.32 0 320.32-2.15 323.52-2.34Q324.05-2.39 324.31-2.73 324.57-3.08 324.57-3.44L324.57-3.44 324.57-31.1 317.36-31.1Q316.63-31.1 316.51-30.25L316.51-30.25 315.83-25.56 312.92-25.56 312.92-33.54 341.26-33.54ZM370.97-1.95L370.97 0 359.83 0 359.83-1.95 361.89-2.1Q362.32-2.15 362.65-2.44 362.98-2.73 362.98-3.2L362.98-3.2 362.98-16.09Q362.98-18.24 361.96-19.64 360.93-21.04 358.03-21.04L358.03-21.04Q356.71-21.04 355.18-20.63 353.66-20.21 352.58-19.6L352.58-19.6 352.58-3.2Q352.58-2.17 353.58-2.1L353.58-2.1 355.73-1.95 355.73 0 344.48 0 344.48-1.95 346.87-2.1Q347.92-2.17 347.92-3.2L347.92-3.2 347.92-33.25 344.19-33.25 344.19-34.91 350.58-36.84 352.58-36.84 352.58-21.61Q353.49-22.17 354.93-22.89 356.37-23.61 357.95-24.16 359.54-24.71 360.84-24.71L360.84-24.71Q363.72-24.71 365.67-22.85 367.62-21 367.62-17.14L367.62-17.14 367.62-3.2Q367.62-2.73 367.95-2.44 368.28-2.15 368.72-2.1L368.72-2.1 370.97-1.95ZM396.3-5.54L396.3-2.49Q394.2-1.2 391.77-0.29 389.34 0.61 386.8 0.61L386.8 0.61Q383.78 0.61 381.13-0.74 378.48-2.1 376.84-4.86 375.21-7.62 375.21-11.79L375.21-11.79Q375.21-15.7 376.72-18.6 378.23-21.51 380.9-23.11 383.56-24.71 386.95-24.71L386.95-24.71Q391.61-24.71 393.96-21.81 396.3-18.92 396.3-14.45L396.3-14.45Q396.3-14.21 396.3-13.81 396.3-13.4 396.25-13.06L396.25-13.06 380.04-13.06Q380.04-11.16 380.44-9.27 380.85-7.37 381.8-5.83 382.75-4.3 384.36-3.37 385.97-2.44 388.39-2.44L388.39-2.44Q390.54-2.44 392.58-3.43 394.62-4.42 396.3-5.54L396.3-5.54ZM380.31-15.31L391.3-15.31 391.3-16.41Q391.3-18.87 390.11-20.56 388.93-22.24 386.44-22.24L386.44-22.24Q383.97-22.24 382.24-20.39 380.5-18.53 380.31-15.31L380.31-15.31ZM448.8-33.54L448.8-25.61 445.84-25.61 445.13-30.2Q445.06-30.57 444.84-30.83 444.62-31.1 444.28-31.1L444.28-31.1 433.64-31.1 433.64-18.09 441.28-18.09Q441.62-18.09 441.89-18.42 442.16-18.75 442.18-18.99L442.18-18.99 442.64-22.51 445.13-22.51 445.13-11.25 442.64-11.25 442.18-14.75Q442.16-15.01 441.88-15.33 441.59-15.65 441.28-15.65L441.28-15.65 433.64-15.65 433.64-3.44Q433.64-3.08 433.89-2.73 434.15-2.39 434.69-2.34L434.69-2.34 438.03-2.15 438.03 0 424.9 0 424.9-2.15 427.53-2.34Q428.07-2.39 428.33-2.73 428.58-3.08 428.58-3.44L428.58-3.44 428.58-30.1Q428.58-30.47 428.33-30.82 428.07-31.18 427.53-31.2L427.53-31.2 424.48-31.4 424.48-33.54 448.8-33.54ZM479.04-1.95L479.04 0 471.1 0 471.1-2.86Q470.25-2.2 468.93-1.39 467.61-0.59 466.1 0.01 464.58 0.61 463.09 0.61L463.09 0.61Q459.87 0.61 458.03-1.33 456.19-3.27 456.19-7.5L456.19-7.5 456.19-21.04 452.69-21.04 452.69-22.75 458.85-24.71 460.85-24.71 460.85-8.45Q460.85-5.79 461.93-4.3 463.02-2.81 465.68-2.81L465.68-2.81Q467.22-2.81 468.71-3.33 470.2-3.86 471.1-4.3L471.1-4.3 471.1-21.04 467.59-21.04 467.59-22.75 473.69-24.71 475.74-24.71 475.74-3.2Q475.74-2.73 476.07-2.44 476.4-2.15 476.84-2.1L476.84-2.1 479.04-1.95ZM498.1-3.05L498.1-3.05 498.1-1.05Q498.1-1.05 497.16-0.63 496.22-0.22 494.69 0.2 493.16 0.61 491.36 0.61L491.36 0.61Q488.55 0.61 487.27-0.72 485.99-2.05 485.99-5L485.99-5 485.99-21.61 482.79-21.61 482.79-23.24 486.21-24.85 488.45-30.15 490.65-30.15 490.65-24.1 497.7-24.1 497.7-21.61 490.65-21.61 490.65-7.64Q490.65-4.66 491.65-3.43 492.65-2.2 494.65-2.2L494.65-2.2Q496.12-2.2 497.11-2.62 498.1-3.05 498.1-3.05ZM527.19-1.95L527.19 0 519.25 0 519.25-2.86Q518.4-2.2 517.08-1.39 515.76-0.59 514.25 0.01 512.73 0.61 511.25 0.61L511.25 0.61Q508.02 0.61 506.18-1.33 504.34-3.27 504.34-7.5L504.34-7.5 504.34-21.04 500.85-21.04 500.85-22.75 507-24.71 509-24.71 509-8.45Q509-5.79 510.09-4.3 511.17-2.81 513.83-2.81L513.83-2.81Q515.37-2.81 516.86-3.33 518.35-3.86 519.25-4.3L519.25-4.3 519.25-21.04 515.74-21.04 515.74-22.75 521.84-24.71 523.89-24.71 523.89-3.2Q523.89-2.73 524.22-2.44 524.55-2.15 524.99-2.1L524.99-2.1 527.19-1.95ZM548.64-23.95L548.64-18.99 546.69-18.99Q546.22-19.56 545.57-19.96 544.93-20.36 544-20.36L544-20.36Q542.8-20.36 541.55-19.53 540.29-18.7 539-17.26L539-17.26 539-3.2Q539-2.15 540.05-2.1L540.05-2.1 543.34-1.95 543.34 0 530.84 0 530.84-1.9 533.31-2.1Q533.75-2.15 534.05-2.44 534.36-2.73 534.36-3.2L534.36-3.2 534.36-20.56 530.74-20.56 530.74-22.19 536.94-24.1 539-24.1 539-19.65Q539.73-20.46 540.83-21.66 541.92-22.85 543.17-23.78 544.42-24.71 545.59-24.71L545.59-24.71Q546.37-24.71 547.27-24.46 548.17-24.22 548.64-23.95L548.64-23.95ZM573.31-5.54L573.31-2.49Q571.21-1.2 568.78-0.29 566.35 0.61 563.82 0.61L563.82 0.61Q560.79 0.61 558.14-0.74 555.49-2.1 553.85-4.86 552.22-7.62 552.22-11.79L552.22-11.79Q552.22-15.7 553.73-18.6 555.25-21.51 557.91-23.11 560.57-24.71 563.96-24.71L563.96-24.71Q568.62-24.71 570.97-21.81 573.31-18.92 573.31-14.45L573.31-14.45Q573.31-14.21 573.31-13.81 573.31-13.4 573.26-13.06L573.26-13.06 557.05-13.06Q557.05-11.16 557.46-9.27 557.86-7.37 558.81-5.83 559.76-4.3 561.37-3.37 562.99-2.44 565.4-2.44L565.4-2.44Q567.55-2.44 569.59-3.43 571.63-4.42 573.31-5.54L573.31-5.54ZM557.32-15.31L568.31-15.31 568.31-16.41Q568.31-18.87 567.12-20.56 565.94-22.24 563.45-22.24L563.45-22.24Q560.98-22.24 559.25-20.39 557.52-18.53 557.32-15.31L557.32-15.31Z" opacity="1" transform="matrix(1,0,0,1,0,0)" fill="#ffffff" class="slogan-text-1" data-fill-palette-color="secondary" id="text-1"></path></svg></g></svg></g></svg></g></svg></g></svg></g></svg></g></svg></g></svg></g><defs></defs></svg><rect width="320" height="360" fill="none" stroke="none" visibility="hidden"></rect></g></svg></g></svg>